<mxfile host="Electron" modified="2023-06-03T21:27:12.886Z" agent="Mozilla/5.0 (Windows NT 10.0; Win64; x64) AppleWebKit/537.36 (KHTML, like Gecko) draw.io/21.2.8 Chrome/112.0.5615.165 Electron/24.2.0 Safari/537.36" etag="x4Vjen21PzApsIYqsqUR" version="21.2.8" type="device">
  <diagram name="Page-1" id="yNeiRVpwvrZIBuMFtFDn">
    <mxGraphModel dx="1098" dy="1016" grid="1" gridSize="10" guides="1" tooltips="1" connect="1" arrows="1" fold="1" page="1" pageScale="1" pageWidth="850" pageHeight="1100" math="0" shadow="0">
      <root>
        <mxCell id="0" />
        <mxCell id="1" parent="0" />
        <mxCell id="TsvoCbj14hfOaMxYL7M3-1" value="Product" style="ellipse;whiteSpace=wrap;html=1;" vertex="1" parent="1">
          <mxGeometry x="80" y="80" width="140" height="70" as="geometry" />
        </mxCell>
        <mxCell id="TsvoCbj14hfOaMxYL7M3-3" value="Name" style="ellipse;whiteSpace=wrap;html=1;" vertex="1" parent="1">
          <mxGeometry x="250" y="10" width="100" height="40" as="geometry" />
        </mxCell>
        <mxCell id="TsvoCbj14hfOaMxYL7M3-4" value="Description" style="ellipse;whiteSpace=wrap;html=1;" vertex="1" parent="1">
          <mxGeometry x="350" y="50" width="100" height="40" as="geometry" />
        </mxCell>
        <mxCell id="TsvoCbj14hfOaMxYL7M3-5" value="Products" style="ellipse;whiteSpace=wrap;html=1;" vertex="1" parent="1">
          <mxGeometry x="280" y="140" width="100" height="40" as="geometry" />
        </mxCell>
        <mxCell id="TsvoCbj14hfOaMxYL7M3-6" value="Add Product to catalog" style="ellipse;whiteSpace=wrap;html=1;" vertex="1" parent="1">
          <mxGeometry x="450" y="100" width="120" height="50" as="geometry" />
        </mxCell>
        <mxCell id="TsvoCbj14hfOaMxYL7M3-7" value="Delete Product from catalog" style="ellipse;whiteSpace=wrap;html=1;" vertex="1" parent="1">
          <mxGeometry x="460" y="180" width="100" height="60" as="geometry" />
        </mxCell>
        <mxCell id="TsvoCbj14hfOaMxYL7M3-8" style="edgeStyle=orthogonalEdgeStyle;rounded=0;orthogonalLoop=1;jettySize=auto;html=1;exitX=0.5;exitY=1;exitDx=0;exitDy=0;" edge="1" parent="1" source="TsvoCbj14hfOaMxYL7M3-7" target="TsvoCbj14hfOaMxYL7M3-7">
          <mxGeometry relative="1" as="geometry" />
        </mxCell>
      </root>
    </mxGraphModel>
  </diagram>
</mxfile>
